<svg width="26" height="27" viewBox="0 0 26 27" fill="none" xmlns="http://www.w3.org/2000/svg">
<g clip-path="url(#clip0_108_173)">
<path d="M22.1159 6.6659H21.9294L21.958 5.86472C21.9822 5.1864 21.7443 4.54381 21.2879 4.05507C20.8317 3.5664 20.2183 3.29728 19.5608 3.29728H16.3774V2.10344C16.3774 1.24598 15.7016 0.548401 14.871 0.548401H12.0086C11.178 0.548401 10.5023 1.24598 10.5023 2.10344V3.29722H7.31886C6.66134 3.29722 6.04796 3.5664 5.59171 4.05507C5.13539 4.54374 4.89747 5.18647 4.92171 5.86465L4.95035 6.66584H4.76373C4.21959 6.66584 3.77844 7.12122 3.77844 7.68291C3.77844 8.24461 4.21959 8.69999 4.76373 8.69999H5.02306L5.56885 23.9698C5.61667 25.3072 6.66962 26.3548 7.966 26.3548H18.9137C20.2101 26.3548 21.263 25.3072 21.3109 23.9698L21.8566 8.69999H22.1159C22.66 8.69999 23.1012 8.24461 23.1012 7.68291C23.1012 7.12122 22.66 6.6659 22.1159 6.6659ZM12.4729 2.58255H14.4068V3.29722H12.4729V2.58255ZM6.89091 5.78973C6.88507 5.62632 6.96336 5.51715 7.01053 5.46664C7.05769 5.41612 7.16049 5.33137 7.31886 5.33137H19.5608C19.7191 5.33137 19.8219 5.41612 19.8691 5.46664C19.9163 5.51715 19.9945 5.62632 19.9887 5.78973L19.9573 6.6659H6.92224L6.89091 5.78973ZM19.3416 23.8949C19.333 24.1336 19.145 24.3206 18.9136 24.3206H17.8814V15.8811C17.8814 15.3195 17.4403 14.8641 16.8962 14.8641C16.352 14.8641 15.9109 15.3195 15.9109 15.8811V24.3207H14.425V15.8811C14.425 15.3195 13.9839 14.8641 13.4398 14.8641C12.8956 14.8641 12.4545 15.3195 12.4545 15.8811V24.3207H10.9686V15.8811C10.9686 15.3195 10.5274 14.8641 9.98328 14.8641C9.43914 14.8641 8.99799 15.3195 8.99799 15.8811V24.3207H7.96587C7.73445 24.3207 7.54646 24.1337 7.53792 23.895L6.99483 8.70006H19.8845L19.3416 23.8949Z" fill="#FF4242" stroke="#FF4242" stroke-width="0.168156"/>
</g>
<defs>
<clipPath id="clip0_108_173">
<rect width="25" height="25.8065" fill="white" transform="translate(0.939819 0.548401)"/>
</clipPath>
</defs>
</svg>
