<svg width="32" height="32" viewBox="0 0 32 32" fill="none" xmlns="http://www.w3.org/2000/svg">
<path d="M24 6.66667H7.99996C7.37143 6.66667 7.05715 6.66667 6.86189 6.86194C6.66663 7.05719 6.66663 7.37147 6.66663 8.00001V10.6198C6.66663 10.9691 6.66663 11.1437 6.74551 11.2911C6.8244 11.4385 6.96972 11.5354 7.26036 11.7292L11.2917 14.4167C12.4543 15.1917 13.0356 15.5793 13.351 16.1689C13.6666 16.7584 13.6666 17.4571 13.6666 18.8543V25.3333L18.3333 23V18.8543C18.3333 17.4571 18.3333 16.7584 18.6489 16.1689C18.9644 15.5793 19.5457 15.1917 20.7082 14.4167L24.7396 11.7292C25.0302 11.5354 25.1756 11.4385 25.2544 11.2911C25.3333 11.1437 25.3333 10.9691 25.3333 10.6198V8.00001C25.3333 7.37147 25.3333 7.05719 25.1381 6.86194C24.9428 6.66667 24.6285 6.66667 24 6.66667Z" stroke="white" stroke-width="2.66667" stroke-linecap="round" stroke-linejoin="round"/>
</svg>
