<svg width="159" height="89" viewBox="0 0 159 89" fill="none" xmlns="http://www.w3.org/2000/svg">
<path d="M142.174 38.6038L138.579 14.7354C138.579 14.7354 140.666 -6.83121 74.8474 19.5557C48.3852 30.1654 31.1417 34 19.9614 34.8025L17.4647 18.4644C-1.13418 22.6878 -0.46603 28.7271 0.290101 30.6541C0.199746 30.5375 0.156946 30.4681 0.156946 30.4681L6.97401 75.1089C6.97401 75.1089 18.4705 80.5957 57.9486 70.0443L60.3193 85.5493C151.63 67.3759 144.706 55.1917 144.706 55.1917L142.174 38.6038ZM5.97059 24.6565L6.84323 30.382L7.01443 30.3431C7.01205 30.382 6.97163 30.4237 6.97877 30.4653L2.7392 31.1178C2.42296 28.3078 3.89718 26.2059 5.97059 24.6565ZM6.77428 41.1889V41.1944L6.46279 41.1278C6.41999 41.1167 6.37481 41.1111 6.33439 41.0973L4.78171 40.7502L3.96375 35.4189C5.60679 35.7105 7.29025 36.2325 7.29025 36.2325L8.08681 41.4443C7.63741 41.3721 7.20465 41.2805 6.77428 41.1889ZM7.95127 23.4181C9.07358 22.8239 10.2434 22.349 11.3491 21.9714L12.1076 26.9334C10.7951 27.4109 9.61809 27.9552 8.7288 28.505L7.95127 23.4181ZM10.3053 41.747L9.53011 36.6573C10.6429 36.8184 11.8151 36.9322 13.0611 36.9905L13.822 41.9747C12.6022 41.9414 11.4323 41.8664 10.3053 41.747ZM13.4225 21.3383C14.464 21.0634 15.3128 20.8913 15.7789 20.8052L16.4375 25.7394C15.6719 25.8782 14.9205 26.067 14.1763 26.2697L13.4225 21.3383ZM15.1868 73.6956L14.4069 68.6031C15.5197 68.7698 16.6943 68.8808 17.9403 68.9336L18.7012 73.9205C17.4814 73.89 16.3091 73.8122 15.1868 73.6956ZM15.9929 41.9664L15.2415 37.0377C16.3519 37.0405 17.5075 37.0072 18.7059 36.935L19.4502 41.8192C18.266 41.9025 17.1176 41.9469 15.9929 41.9664ZM20.8721 73.9122L20.1159 68.9836C21.2311 68.9836 22.3843 68.953 23.5827 68.8808L24.3293 73.7622C23.1452 73.8483 21.9968 73.89 20.8721 73.9122ZM21.5997 41.6637L20.8554 36.7795C21.9682 36.6795 23.1096 36.5518 24.2842 36.4102L25.0237 41.2666C23.8633 41.4138 22.7196 41.5554 21.5997 41.6637ZM26.4765 73.6068L25.7322 68.7225C26.8474 68.6254 27.9887 68.4976 29.1562 68.3505L29.9005 73.2041C28.7377 73.3624 27.5964 73.4985 26.4765 73.6068ZM27.1494 40.9612L26.4075 36.1103C27.5227 35.9465 28.6545 35.7632 29.8054 35.555L30.5472 40.4086C29.4011 40.6169 28.2693 40.7946 27.1494 40.9612ZM32.0262 72.907L31.2891 68.0561C32.3995 67.8923 33.5313 67.7035 34.6869 67.498L35.4264 72.3545C34.2779 72.5655 33.1485 72.7376 32.0262 72.907ZM34.6489 39.6201C33.9807 39.7589 33.3173 39.8727 32.6563 40.0005L31.9168 35.1635C33.0225 34.9497 34.1495 34.7136 35.2909 34.4693L36.0303 39.3091C35.5738 39.4118 35.1078 39.5229 34.6489 39.6201ZM39.528 71.5659C38.8575 71.7075 38.1989 71.8241 37.5355 71.9518L36.796 67.1121C37.904 66.901 39.0311 66.6706 40.1724 66.4207L40.9095 71.2632C40.453 71.3576 39.987 71.4659 39.528 71.5659ZM38.1323 38.8454L37.3904 34.0056C38.4961 33.7501 39.6184 33.4836 40.7526 33.2003L41.4897 38.0401C40.3698 38.3178 39.2475 38.5927 38.1323 38.8454ZM43.0139 70.7912L42.272 65.9486C43.3777 65.696 44.5 65.4266 45.6342 65.1434L46.3736 69.9804C45.2466 70.2636 44.129 70.5385 43.0139 70.7912ZM43.5798 37.5181L42.8403 32.6728C43.9459 32.384 45.0635 32.0841 46.1882 31.7759L46.93 36.6212C45.8172 36.9294 44.6997 37.2265 43.5798 37.5181ZM48.459 69.4639L47.7218 64.6214C48.8323 64.3326 49.9474 64.0327 51.0745 63.7217L51.8116 68.5671C50.694 68.8753 49.5765 69.1724 48.459 69.4639ZM49.0082 36.0353L48.2687 31.1928C49.372 30.879 50.4872 30.5542 51.6071 30.2182L52.349 35.0718C51.2409 35.4023 50.1281 35.7216 49.0082 36.0353ZM54.4224 34.4443L53.6805 29.5934C54.7814 29.2547 55.8895 28.9076 57.0047 28.5494L57.7441 33.4058C56.6456 33.7585 55.5399 34.1 54.4224 34.4443ZM137.906 20.3665L138.957 27.2443L139.016 27.2971C138.631 27.933 137.468 29.3741 134.296 31.4399L133.103 23.6097C133.293 23.5597 133.481 23.4847 133.669 23.407C133.816 23.3514 133.942 23.3042 134.044 23.2681C135.882 22.4407 137.533 20.7608 137.906 20.3665ZM130.806 9.20696L130.811 9.20974C130.932 9.22084 131.029 9.22917 131.065 9.23473V9.25417C131.607 9.36801 132.901 9.66234 133.245 10.0427L134.002 14.9991L130.599 14.1994C130.594 14.1994 130.523 14.1911 130.482 14.1856L129.707 9.11255C130.211 9.15143 130.573 9.18475 130.806 9.20696ZM132.223 32.7033C131.02 33.3947 129.603 34.1389 127.955 34.933L126.811 27.4387C128.63 26.5252 130.014 25.7255 131.058 25.0591L132.223 32.7033ZM127.522 9.00148L128.288 14.044C127.377 14.0079 126.205 13.9829 124.8 14.0051L124.036 8.99038C125.375 8.96539 126.547 8.97372 127.522 9.00148ZM124.7 28.4578L125.839 35.9215C124.531 36.5102 123.092 37.1266 121.511 37.7652L120.377 30.3431C121.999 29.6767 123.43 29.0492 124.7 28.4578ZM121.875 9.07923L122.641 14.0745C121.578 14.1217 120.434 14.1911 119.19 14.2966L118.427 9.31525C119.664 9.20141 120.8 9.12921 121.875 9.07923ZM119.378 38.6038C118.016 39.1286 116.561 39.6673 115.01 40.2198L113.883 32.8227C115.46 32.2618 116.903 31.7204 118.246 31.1984L119.378 38.6038ZM116.294 9.53739L117.053 14.5104C115.966 14.6298 114.83 14.777 113.636 14.9519L112.877 9.99554C114.069 9.81228 115.198 9.66512 116.294 9.53739ZM110.761 10.3426L111.52 15.2879C110.428 15.4739 109.297 15.6933 108.134 15.9321L107.378 10.9924C108.543 10.748 109.67 10.5314 110.761 10.3426ZM111.736 33.5808L112.863 40.9723C111.477 41.4471 110.008 41.9303 108.474 42.419L107.344 35.0413C108.89 34.5443 110.357 34.0556 111.736 33.5808ZM105.273 11.4478L106.027 16.3875C104.943 16.6402 103.816 16.9234 102.677 17.2288L101.923 12.2919C103.067 11.992 104.187 11.7032 105.273 11.4478ZM105.183 35.7271L106.308 43.0992C104.907 43.538 103.431 43.9795 101.902 44.4237L100.779 37.0572C102.304 36.6101 103.79 36.1631 105.183 35.7271ZM99.8402 12.875L100.596 17.8147C99.5049 18.134 98.3992 18.4672 97.2698 18.8337L96.5113 13.8857C97.6431 13.5164 98.7512 13.1887 99.8402 12.875ZM99.7332 45.054C98.3136 45.4594 96.8394 45.8676 95.3129 46.2897L94.193 38.9287C95.7266 38.5094 97.1913 38.1012 98.6109 37.6903L99.7332 45.054ZM94.4521 14.5993L95.2083 19.5501C94.1216 19.9278 93.0231 20.3359 91.9127 20.7691L91.1518 15.796C92.267 15.3684 93.3679 14.9741 94.4521 14.5993ZM93.1372 46.87C91.7058 47.2476 90.2245 47.6364 88.7027 48.0251L87.5828 40.6696C89.1069 40.2781 90.5835 39.8949 92.0149 39.5118L93.1372 46.87ZM87.8633 17.0983C88.2842 16.9234 88.6908 16.779 89.1022 16.6068L89.8631 21.5716C89.6776 21.6521 89.4969 21.7104 89.3066 21.7937C88.6004 22.0908 87.6589 22.4823 86.5841 22.921L85.8232 17.9424C86.5033 17.662 87.1881 17.3843 87.8633 17.0983ZM86.5223 48.5749C85.0861 48.9359 83.5952 49.2996 82.0759 49.6661L80.9535 42.3162C82.4848 41.9441 83.9591 41.5832 85.3976 41.2222L86.5223 48.5749ZM83.7807 18.7838L84.5345 23.7485C83.5287 24.1539 82.4468 24.5843 81.2555 25.0508L80.4994 20.1027C81.6051 19.664 82.6917 19.2253 83.7807 18.7838ZM78.4498 20.9079L79.2035 25.8449C78.1573 26.2475 77.0659 26.6668 75.9174 27.0944L75.1637 22.1713C76.2646 21.7548 77.3631 21.3328 78.4498 20.9079ZM78.7684 42.8299L79.8931 50.1854C78.445 50.5297 76.9589 50.8712 75.4419 51.2155L74.3196 43.8601C75.8413 43.5158 77.3227 43.1714 78.7684 42.8299ZM73.1117 22.9488L73.863 27.8608C72.793 28.2523 71.6945 28.6521 70.5603 29.0631L69.8113 24.165C70.917 23.7652 72.0155 23.3625 73.1117 22.9488ZM73.2519 51.7042C71.792 52.0346 70.3154 52.3623 68.7936 52.6927L67.6689 45.3373C69.1907 45.0068 70.6768 44.682 72.1273 44.3543L73.2519 51.7042ZM67.7569 24.9091L68.5035 29.7961C67.424 30.1738 66.3231 30.5569 65.1937 30.9485L64.4471 26.0726C65.5551 25.6922 66.656 25.2979 67.7569 24.9091ZM62.3855 26.7779L63.1322 31.6454C62.0408 32.0119 60.9375 32.384 59.8152 32.745L59.0709 27.8802C60.1766 27.5248 61.2823 27.1499 62.3855 26.7779ZM60.0054 54.5364L58.9116 47.181C61.1705 46.7228 63.3485 46.2647 65.4743 45.8121L66.5966 53.162C65.5599 53.3786 64.5517 53.5979 63.4841 53.82C62.3451 54.0588 61.18 54.2949 60.0054 54.5364ZM67.3789 81.6897C66.209 81.9368 65.013 82.1784 63.8098 82.4255L62.7137 75.0479C65.0011 74.5841 67.2124 74.1204 69.3667 73.6623L70.489 81.0316C69.4523 81.2538 68.4489 81.4703 67.3789 81.6897ZM72.5909 80.5846L71.4639 73.2069C73.0165 72.8709 74.5383 72.5349 76.022 72.2101L77.1444 79.5794C75.6535 79.9126 74.1531 80.2486 72.5909 80.5846ZM79.2416 79.1102L78.1169 71.7325C79.6672 71.3743 81.1794 71.0244 82.6608 70.6773L83.7855 78.0606C82.3089 78.4077 80.7966 78.7575 79.2416 79.1102ZM85.8827 77.558L84.7556 70.1886C86.313 69.8082 87.8205 69.4389 89.2876 69.0724L90.4123 76.4529C88.9476 76.8166 87.4353 77.1859 85.8827 77.558ZM92.5071 75.9197L91.3777 68.5337C92.9351 68.1367 94.445 67.7479 95.9002 67.3536L97.0273 74.7452C95.5697 75.1339 94.0622 75.5227 92.5071 75.9197ZM99.1173 74.1899L97.9879 66.8011C99.5572 66.3707 101.05 65.9486 102.503 65.5321L103.628 72.9265C102.18 73.3374 100.677 73.7567 99.1173 74.1899ZM105.711 72.3267L104.577 64.9268C106.136 64.4631 107.654 64.0133 109.073 63.569L110.207 70.9717C108.776 71.4187 107.268 71.8713 105.711 72.3267ZM112.278 70.3164L111.149 62.9026C112.721 62.3972 114.221 61.903 115.624 61.4143L116.753 68.8419C115.348 69.3251 113.84 69.8193 112.278 70.3164ZM118.817 68.1228L117.681 60.6951C119.29 60.1176 120.765 59.565 122.134 59.0263L123.271 66.4762C121.884 67.0121 120.408 67.5619 118.817 68.1228ZM125.318 65.671L124.179 58.2072C125.834 57.5297 127.299 56.8827 128.59 56.2857L129.736 63.7912C128.402 64.3965 126.935 65.024 125.318 65.671ZM131.766 62.8526L130.613 55.3056C132.477 54.3698 133.89 53.5535 134.948 52.8732L136.123 60.5757C134.896 61.2782 133.452 62.0418 131.766 62.8526ZM138.108 59.3679L136.9 51.4793C137.095 51.4238 137.281 51.3516 137.468 51.2766C137.621 51.2183 137.744 51.1739 137.846 51.1378C139.929 50.1937 141.782 48.1445 141.782 48.1445L142.847 55.1168L142.909 55.1695C142.521 55.8082 141.356 57.2687 138.108 59.3679Z" fill="#FFCD82" fill-opacity="0.87" stroke="#FED08B" stroke-opacity="0.87" stroke-width="0.000989984"/>
<path d="M72.5871 62.4404L74.2939 62.0412L76.3642 61.4703L76.5825 61.6045L76.8397 63.5628L74.5431 64.0823L73.0256 64.4882L73.2205 65.4642L74.2093 69.343L71.6196 69.9897L70.937 66.2771L68.8248 57.6901L76.1113 55.8707L76.31 56.0368L76.573 58.0205L73.6301 58.6475L71.8783 59.0849L72.5871 62.4404ZM78.2478 54.3395C78.654 54.2381 78.9942 54.2789 79.2683 54.4622C79.5386 54.6284 79.7221 54.9241 79.8187 55.3494C79.9115 55.7577 79.8684 56.119 79.6894 56.4334C79.5104 56.7477 79.2094 56.9577 78.7862 57.0634C78.38 57.1648 78.0333 57.1345 77.7461 56.9726C77.4719 56.7893 77.2885 56.4936 77.1957 56.0853C77.1029 55.677 77.1545 55.3136 77.3504 54.995C77.5424 54.6594 77.8415 54.4409 78.2478 54.3395ZM82.4504 67.2852L79.9115 67.9192L79.2035 64.2129L77.9539 59.1858L80.4464 58.3477L81.4109 63.419L82.4504 67.2852ZM87.3284 66.0672L84.8149 66.6948L84.1011 62.963L81.8367 53.4703L84.3038 52.6385L86.3143 62.1947L87.3284 66.0672ZM99.182 57.2558C98.9863 56.316 98.4822 55.9475 97.6698 56.1503C97.0943 56.294 96.5514 56.6992 96.0412 57.366L96.5318 59.6434L97.4952 63.5286L94.9817 64.1562L93.8757 58.5808C93.6631 57.6452 93.1506 57.2788 92.3382 57.4816C91.7627 57.6253 91.2114 58.0326 90.6841 58.7036L91.2002 60.9747L92.2143 64.8472L89.7008 65.4748L88.9928 61.7686L87.7431 56.7414L90.0833 55.9413L90.379 57.2428L90.506 57.2111C91.0869 56.3829 91.7442 55.7334 92.4778 55.2625C93.9165 54.9033 94.9388 55.1514 95.5445 56.0069L95.6207 55.9878C96.2108 55.1214 96.9319 54.438 97.7841 53.9376C98.7488 53.6967 99.5269 53.7361 100.118 54.0558C100.727 54.3714 101.115 54.9395 101.284 55.7603L101.813 58.3248L102.801 62.2036L100.288 62.8312L99.182 57.2558ZM105.8 57.1134C106.269 58.7042 107.231 59.3178 108.687 58.9544C109.516 58.7473 110.317 58.2957 111.088 57.5996L111.326 57.702L111.42 59.6472C110.624 60.2412 109.78 60.6587 108.887 60.8997C107.482 61.2505 106.298 61.1148 105.334 60.4927C104.37 59.8705 103.725 58.845 103.4 57.416C103.072 55.97 103.204 54.7415 103.797 53.7305C104.403 52.6983 105.316 52.03 106.534 51.7257C107.753 51.4214 108.73 51.51 109.465 51.9915C110.214 52.4518 110.712 53.2263 110.959 54.3151C111.036 54.6553 111.09 55.0104 111.121 55.3803L110.821 55.8327L105.8 57.1134ZM106.987 53.3654C106.496 53.4879 106.118 53.7531 105.853 54.1608C105.605 54.5643 105.498 55.0765 105.532 55.6973L108.708 54.7964L108.712 54.5796C108.459 53.5461 107.884 53.1414 106.987 53.3654ZM114.687 49.6899C115.648 49.4319 116.544 49.361 117.376 49.477L117.469 51.4222L117.187 51.6004C116.314 51.2972 115.564 51.2238 114.937 51.3802C114.633 51.4563 114.407 51.6026 114.259 51.8192C114.125 52.0146 114.085 52.2314 114.139 52.4695C114.193 52.7077 114.358 52.8822 114.633 52.9932C114.909 53.1041 115.324 53.1983 115.878 53.2756C116.432 53.353 116.893 53.4536 117.261 53.5774C117.642 53.68 117.99 53.8719 118.304 54.1529C118.615 54.417 118.828 54.8042 118.944 55.3146C119.06 55.8249 119.041 56.3329 118.888 56.8386C118.519 57.9733 117.574 58.7307 116.05 59.1111C115.136 59.3393 114.144 59.3804 113.073 59.2342L112.926 57.1678L113.119 56.9576C113.586 57.2006 114.088 57.3629 114.625 57.4445C115.159 57.5091 115.603 57.497 115.958 57.4082C116.314 57.3195 116.565 57.1668 116.713 56.9502C116.86 56.7336 116.907 56.5062 116.853 56.268C116.795 56.0129 116.628 55.8298 116.353 55.7189C116.073 55.5909 115.656 55.4882 115.102 55.4109C114.544 55.3165 114.083 55.2159 113.719 55.1091C112.802 54.8526 112.243 54.2821 112.042 53.3975C111.841 52.5129 111.987 51.7393 112.481 51.0768C112.987 50.3931 113.723 49.9308 114.687 49.6899Z" fill="#176596"/>
<g filter="url(#filter0_d_35_113)">
<path d="M40.7729 54.7561L41.0886 55.918L34.0323 58.0247L31.1799 54.4653L23.3187 56.8123L22.6833 61.413L15.6271 63.5198L15.3114 62.3579L18.3969 61.4367L21.2006 41.4364L25.2519 40.2268L37.6606 55.6853L40.7729 54.7561ZM24.7666 46.4478L23.8959 52.6379L28.5911 51.2361L24.7666 46.4478ZM57.7861 49.6767L58.1018 50.8385L38.3551 56.7341L38.0394 55.5722L43.8078 53.85C42.1468 53.4306 40.7092 52.6232 39.4949 51.4277C38.2936 50.2089 37.4433 48.6808 36.9441 46.8434C36.1904 44.0693 36.507 41.4626 37.8939 39.0231C39.2988 36.5783 41.3785 34.9447 44.133 34.1223C47.2095 33.2038 50.1057 33.6147 52.8217 35.355L51.0268 39.1042C49.2529 37.8421 47.3822 37.5048 45.4147 38.0922C43.8407 38.5622 42.6322 39.4878 41.7892 40.869C40.9592 42.2268 40.784 43.7884 41.2637 45.5538C41.7384 47.3011 42.6478 48.5486 43.9919 49.2964C45.3359 50.0441 46.7592 50.1937 48.2617 49.7451C50.3186 49.131 51.7773 47.8094 52.6376 45.7803L56.0767 47.7624C55.5393 48.9161 54.8571 49.928 54.0299 50.7981L57.7861 49.6767ZM73.9831 33.2436L71.7167 45.0794L69.2216 45.8243L61.3732 37.0084L64.6034 48.8974L57.8154 50.924L57.4998 49.7621L60.1022 48.9852L55.2863 31.2597L60.9474 29.5696L68.5958 38.5036L70.6329 26.6779L76.2672 24.9957L81.0831 42.7211L83.6856 41.9441L84.0013 43.106L77.2133 45.1326L73.9831 33.2436ZM85.7005 41.3425L80.8846 23.6171L94.4068 19.5799L95.4272 23.3358L86.0905 26.1234L87.1477 30.0143L95.5454 27.5071L96.5218 31.1008L88.1241 33.608L89.1886 37.526L98.8204 34.6503L99.5179 37.2172L102.12 36.4402L102.436 37.6021L83.4137 43.2814L83.0981 42.1195L85.7005 41.3425Z" fill="#25495B"/>
</g>
<defs>
<filter id="filter0_d_35_113" x="6.37805" y="18.2825" width="100.058" height="53.2372" filterUnits="userSpaceOnUse" color-interpolation-filters="sRGB">
<feFlood flood-opacity="0" result="BackgroundImageFix"/>
<feColorMatrix in="SourceAlpha" type="matrix" values="0 0 0 0 0 0 0 0 0 0 0 0 0 0 0 0 0 0 127 0" result="hardAlpha"/>
<feOffset dy="4"/>
<feGaussianBlur stdDeviation="2"/>
<feComposite in2="hardAlpha" operator="out"/>
<feColorMatrix type="matrix" values="0 0 0 0 0 0 0 0 0 0 0 0 0 0 0 0 0 0 0.25 0"/>
<feBlend mode="normal" in2="BackgroundImageFix" result="effect1_dropShadow_35_113"/>
<feBlend mode="normal" in="SourceGraphic" in2="effect1_dropShadow_35_113" result="shape"/>
</filter>
</defs>
</svg>
