<svg width="26" height="27" viewBox="0 0 26 27" fill="none" xmlns="http://www.w3.org/2000/svg">
<path d="M21.9292 20.3758L17.9627 16.2815C18.7823 15.0065 19.262 13.4798 19.262 11.8387C19.262 7.39194 15.7573 3.7742 11.4495 3.7742C7.14165 3.7742 3.63696 7.39194 3.63696 11.8387C3.63696 16.2855 7.14165 19.9032 11.4495 19.9032C13.0393 19.9032 14.5182 19.4081 15.7534 18.5621L19.7198 22.6565C20.3292 23.2863 21.3198 23.2863 21.9292 22.6565C22.5393 22.0266 22.5393 21.0057 21.9292 20.3758ZM5.98071 11.8387C5.98071 8.72581 8.43384 6.19356 11.4495 6.19356C14.4651 6.19356 16.9182 8.72581 16.9182 11.8387C16.9182 14.9516 14.4651 17.4839 11.4495 17.4839C8.43384 17.4839 5.98071 14.9516 5.98071 11.8387Z" fill="white" stroke="white" stroke-width="0.00064"/>
</svg>
